<?xml version="1.0" encoding="utf-8"?>
<svg viewBox="155.689 162.275 185.03 60.479" xmlns="http://www.w3.org/2000/svg">
  <path d="M 159.403 168.116 L 182.703 168.116 C 202.703 168.116 210.603 179.916 210.603 192.316 C 210.603 205.016 200.603 216.216 181.403 216.216 L 159.403 216.216 C 159.103 216.216 158.903 216.116 158.903 215.816 C 158.903 215.816 158.903 215.816 158.903 215.716 C 158.903 215.516 159.203 215.216 159.503 215.216 L 163.603 215.216 C 164.703 215.316 165.603 214.416 165.703 213.316 C 165.703 213.216 165.703 213.116 165.703 213.016 L 165.703 171.316 C 165.803 170.216 165.003 169.216 163.903 169.116 C 163.803 169.116 163.603 169.116 163.503 169.116 L 159.303 169.116 C 159.003 169.116 158.803 168.916 158.803 168.716 C 158.803 168.716 158.803 168.716 158.803 168.616 C 158.803 168.416 158.903 168.116 159.403 168.116 M 173.903 214.016 C 173.903 215.016 174.403 215.416 175.103 215.416 L 181.303 215.416 C 196.503 215.416 202.003 203.816 202.003 192.116 C 202.003 180.416 196.203 169.116 183.303 169.116 L 174.903 169.116 C 174.403 169.116 174.003 169.516 173.903 170.016 C 173.903 170.116 173.903 170.116 173.903 170.216 L 173.903 214.016 Z M 212.803 168.116 C 212.403 168.116 212.103 168.316 212.103 168.516 C 212.103 168.716 212.303 169.016 212.503 169.016 C 212.503 169.016 212.603 169.016 212.603 169.016 L 216.703 169.016 C 217.603 169.016 218.503 169.716 218.503 171.516 L 218.503 213.216 C 218.503 214.116 217.803 215.416 216.703 215.416 L 212.603 215.416 C 212.303 215.416 212.103 215.616 212.103 215.816 C 212.103 215.816 212.103 215.916 212.103 215.916 C 212.103 216.116 212.103 216.316 212.603 216.316 L 232.503 216.316 C 232.803 216.316 233.203 216.316 233.203 216.016 C 233.203 215.716 233.103 215.416 232.603 215.416 L 228.703 215.416 C 227.603 215.416 226.703 214.516 226.703 213.416 L 226.703 171.016 C 226.603 170.016 227.403 169.116 228.503 169.016 C 228.603 169.016 228.703 169.016 228.903 169.016 L 232.603 169.016 C 232.903 169.016 233.103 168.816 233.103 168.616 C 233.103 168.416 232.903 168.116 232.503 168.116 L 212.803 168.116 Z M 243.703 192.216 C 243.703 178.916 249.603 168.116 260.803 168.116 C 271.803 168.116 277.903 178.916 277.903 192.216 C 277.903 205.516 272.303 216.316 260.803 216.316 C 249.603 216.316 243.703 205.516 243.703 192.216 M 260.803 217.316 C 276.703 217.316 286.703 206.116 286.703 192.316 C 286.703 178.516 276.803 167.216 260.803 167.216 C 244.803 167.216 234.903 178.416 234.903 192.216 C 234.903 206.016 245.203 217.316 260.803 217.316 M 337.403 215.916 C 331.203 216.616 327.703 206.316 324.603 201.516 C 321.703 197.316 317.303 194.516 312.303 193.516 C 320.403 193.016 329.503 190.416 329.503 181.216 C 329.503 173.716 324.903 168.116 308.003 168.116 L 288.603 168.116 C 288.303 168.116 288.103 168.316 288.103 168.516 C 288.103 168.516 288.103 168.516 288.103 168.516 C 288.103 168.816 288.303 169.016 288.603 169.016 C 288.603 169.016 288.603 169.016 288.603 169.016 L 293.103 169.016 C 294.003 169.016 294.903 169.716 294.903 171.516 L 294.903 213.216 C 294.903 214.116 294.303 215.416 293.103 215.416 L 288.703 215.416 C 288.403 215.416 288.203 215.616 288.203 215.816 C 288.203 216.116 288.403 216.316 288.703 216.316 L 309.403 216.316 C 309.703 216.316 310.003 216.216 310.003 215.916 C 310.003 215.616 309.803 215.416 309.403 215.416 L 305.203 215.416 C 304.103 215.416 303.203 214.516 303.203 213.416 L 303.203 193.616 L 305.303 193.616 C 315.503 193.616 316.303 204.716 321.403 211.016 C 324.603 215.016 329.503 217.316 334.603 217.116 C 335.703 217.116 336.703 217.116 337.803 216.916 C 338.303 216.816 338.403 215.816 337.403 215.916 M 305.103 169.016 L 308.103 169.016 C 313.203 169.016 321.603 171.016 321.603 180.816 C 321.603 189.716 314.203 192.716 307.403 192.716 L 303.003 192.716 L 303.003 171.016 C 302.903 169.916 303.803 169.016 304.803 169.016 C 304.903 169.016 305.003 169.016 305.103 169.016"/>
  <rect x="153.503" y="161.716" class="st0" width="190" height="61" style="fill: none;"/>
</svg>