<?xml version="1.0" encoding="utf-8"?>
<!-- Generator: Adobe Illustrator 16.0.0, SVG Export Plug-In . SVG Version: 6.00 Build 0)  -->
<!DOCTYPE svg PUBLIC "-//W3C//DTD SVG 1.1//EN" "http://www.w3.org/Graphics/SVG/1.1/DTD/svg11.dtd">
<svg version="1.1" id="Layer_1" xmlns="http://www.w3.org/2000/svg" xmlns:xlink="http://www.w3.org/1999/xlink" x="0px" y="0px"
	 width="1132px" height="165px" viewBox="0 0 1132 165" enable-background="new 0 0 1132 165" xml:space="preserve">
<g>
	<path fill="#010202" d="M355.171,99.359c-6.034-3.905-13.134-3.905-20.054-3.548c-6.39,0-17.569,2.485-27.863,6.032
		c-7.099,2.484-14.551,3.904-27.506,3.194c-10.293-0.71-14.198-2.13-20.408-4.969c-1.065-1.065-4.26-2.838-5.682-3.195
		c-4.612-1.774-9.937-1.774-18.634-1.063c-11.711,1.063-22.36,2.84-36.556,12.066c-14.729,9.76-27.684,28.928-27.684,35.672
		c0,9.937,7.452,17.212,25.021,17.212h0.355c16.151,0,34.25-7.81,48.981-20.409c9.584-8.519,18.279-18.276,19.342-26.795
		c0.357-3.905-0.353-6.747-1.418-8.52c3.904,1.42,8.52,2.485,16.683,2.84c6.034,0.354,11.356,0,16.681-0.71
		c-5.324,2.84-14.551,9.937-19.698,15.971c-5.677,7.102-8.874,13.843-8.874,20.411c-0.355,9.937,7.102,17.212,25.378,17.212
		c14.198,0,34.426-8.164,44.72-15.971c0.536-0.534,3.373-2.663,3.373-2.663c12.424-10.646,19.344-22.536,19.699-30.346
		C361.56,106.104,358.365,101.488,355.171,99.359z M249.046,107.523c-1.064,7.809-9.586,20.764-18.636,29.637
		c-9.939,10.294-23.601,20.055-31.053,20.055H199c-3.904,0-5.322-2.487-4.969-6.035c1.065-7.099,9.229-20.764,20.409-31.412
		c8.874-8.874,17.569-15.973,25.733-20.054c3.194-1.417,6.744-1.417,8.164,0.708C250.111,101.844,249.754,105.394,249.046,107.523z
		 M345.766,107.523c-1.423,7.809-9.229,20.764-18.281,29.637c-10.294,10.294-23.956,20.055-31.408,20.055h-0.357
		c-3.901,0-5.324-2.487-4.969-6.035c1.067-7.099,9.581-20.764,20.411-31.412c8.871-8.874,17.566-15.973,25.73-20.054
		c3.192-1.417,6.744-1.417,8.519,0.708C346.83,101.844,346.83,105.394,345.766,107.523z"/>
	<path fill="#010202" d="M653.136,81.081c-6.032-1.42-13.841,4.611-19.699,12.067c-7.097,2.487-18.634,3.192-27.152,2.84
		c10.293-12.423,17.214-22.895,28.572-36.382c7.1-8.52,16.684-19.344,24.313-25.731c7.809,1.064,21.118,2.483,32.478,2.483
		c17.214,0,28.925-3.194,29.277-10.647C721.992,17.904,710.991,14,698.392,14c-13.136,0-27.863,4.259-40.996,9.938
		c-14.908-3.551-30.7-7.811-43.479-11.36c-22.184-6.033-45.256-9.938-60.341-9.938c-44.543-0.709-75.598,21.83-79.15,48.095
		c-2.129,18.987,8.52,37.444,29.641,44.901c3.192,1.063,6.389,1.417,6.741,0.353c0.355-1.065-1.064-0.713-4.611-2.13
		c-22.718-9.584-26.622-27.33-23.782-40.994c6.389-26.445,35.669-35.671,69.212-35.671h0.354c17.569,0,42.059,4.614,57.146,7.453
		c11.356,2.485,26.086,5.326,35.672,6.744c-15.973,9.583-36.384,26.087-51.821,42.415c-7.456,8.163-13.134,15.261-18.281,22.184
		c-5.68,0-15.261-0.353-19.344,0c-9.937,0.71-13.131,2.84-13.483,4.257c-0.357,1.774,2.125,0,10.646-0.354
		c4.26-0.353,11.712-0.353,19.699-0.353c-6.39,8.871-12.778,16.68-21.828,26.442c-20.765,23.249-42.593,35.849-69.746,34.604
		c-10.648-0.354-18.636-3.904-18.636-10.648c0-3.192,1.777-5.68,4.616-8.517c3.192-3.552,4.97-6.389,5.678-11.358
		c0.356-7.1-4.612-13.844-14.549-13.844c-13.136,0-20.764,10.649-20.764,21.474c0.353,17.569,20.406,26.799,44.896,26.799
		c36.027,0,82.346-20.409,113.048-54.661c3.547-3.55,6.034-6.742,8.164-9.584c12.066,0,20.764-0.707,27.152-2.482
		c-1.774,2.128-3.904,5.68-5.679,9.937c-1.422,3.194-2.484,8.874-0.71,8.874c1.063,0,2.84-2.84,5.677-5.68
		c6.034-6.389,11.006-10.291,18.634-16.325C656.686,87.826,658.815,82.5,653.136,81.081z M697.679,17.548h0.357
		c11.356,0,19.696,2.838,19.342,7.453c-0.353,3.905-8.162,6.746-17.212,6.746c-6.746,0-18.637-1.422-32.125-4.971
		C675.143,22.16,687.03,17.548,697.679,17.548z"/>
	<path fill="#010202" d="M222.424,34.052c7.809,1.066,21.121,2.484,32.477,2.484c17.215,0,28.928-3.195,29.283-10.648
		c1.064-7.808-9.939-11.712-22.539-11.712c-13.133,0-27.862,4.259-40.994,9.938c-4.259-1.064-8.519-2.13-12.781-3.193l0.181-0.355
		c-9.231-2.485-18.279-5.147-27.153-7.453c-22.894-6.389-47.207-11.181-62.646-11.181c-32.12-0.355-56.436,10.115-69.566,25.556
		c-6.21,6.92-9.938,14.906-11.182,23.248c-1.063,9.407,1.067,18.635,6.034,26.618c4.793,8.34,12.6,15.086,23.606,18.988
		c26.795,8.164,52.526,0.181,59.272-16.327c7.275-17.922-8.164-31.765-20.764-37.09c-7.633-3.193-14.198-3.014-14.022-1.419
		c0.179,0.888,3.729-0.532,12.248,3.195c12.955,5.5,22.007,18.278,15.973,33.188c-7.102,17.035-36.561,22.715-53.596,14.375
		C54.364,86.05,47.619,75.755,45.313,65.641c-0.531-4.436-0.355-8.695,0.531-12.776c6.389-26.445,35.672-35.671,69.214-35.671h0.353
		c17.571,0,42.063,4.614,57.148,7.453c11.356,2.485,26.085,5.326,35.669,6.744c-16.149,9.583-36.382,26.087-51.821,42.415
		c-7.454,8.163-33.54,42.413-42.414,52.176c-21.119,23.249-42.771,35.849-69.924,34.604c-10.644-0.354-18.632-3.904-18.632-10.648
		c0-3.192,1.772-5.68,4.615-8.517c3.192-3.552,4.967-6.389,5.679-11.358c0.355-7.1-4.617-13.844-14.553-13.844
		c-13.133,0-20.764,10.649-20.764,21.474c0.355,17.569,20.406,26.799,44.898,26.799c36.027,0,82.345-20.409,113.047-54.661
		c3.549-3.55,28.215-36.381,39.574-50.047C205.389,51.087,214.973,40.441,222.424,34.052z M260.936,17.548h0.355
		c11.356,0,19.698,2.838,19.344,7.453c-0.355,3.905-8.164,6.746-17.214,6.746c-6.744,0-18.635-1.422-32.123-4.971
		C238.573,22.16,250.29,17.548,260.936,17.548z"/>
	<path fill="#010202" d="M1122.711,0.51c-9.229,0-14.905,2.841-20.054,7.455c-16.504,14.906-28.57,28.571-40.994,43.122
		c-17.926,20.767-33.895,40.287-45.607,57.146l-0.355-0.354c1.774-5.68-1.067-12.066-11.004-12.424
		c-12.065-0.71-25.38,3.55-34.959,8.164c-9.229,3.905-16.152,7.81-22.541,12.424c-3.016,1.951-7.273,5.146-10.294,7.809
		c0,0,0,0-0.176,0c-6.034,5.678-14.554,12.424-21.474,17.215c-15.616,10.293-28.573,13.485-33.896,13.485
		c-5.679,0-8.519-2.484-8.519-7.807c0-2.487,0.71-5.679,2.13-7.809c8.874-1.775,24.668-6.034,34.96-11.004
		c11.003-5.324,22.893-12.421,23.605-22.184c0.354-5.679-3.904-10.648-15.261-10.648h-0.357c-12.424,0-25.378,4.26-38.864,11.004
		c-6.034,3.194-14.198,8.164-18.279,11.001c-4.262,3.197-7.812,6.034-12.07,9.938c-0.353,0.355-0.531,0.536-0.708,0.713
		c-5.326,4.436-11.36,9.404-16.683,13.131c-15.615,10.293-28.216,12.778-32.832,12.778c-5.677,0-8.872-3.197-8.164-8.164
		c1.067-8.52,10.294-22.184,20.056-31.768c9.939-10.291,18.279-15.971,22.184-14.905c3.548,0.71,1.418,3.547-3.194,11.355
		c-3.552,6.034-2.484,12.069,4.612,12.069c5.682,0,12.068-6.035,13.488-13.489c1.42-7.451-3.902-13.128-14.906-13.488
		c-11.358-0.707-26.442,4.97-37.799,10.651c-6.037,2.837-13.844,8.162-17.927,11.001c-3.016,1.954-5.503,3.905-8.34,6.39
		c-0.177,0.176-0.355,0.354-0.531,0.354c-0.179,0.179-0.534,0.355-0.71,0.71c-0.889,0.887-1.953,1.599-2.84,2.661l0,0
		c-3.729,3.373-8.343,7.278-13.843,11.714c-5.68,4.614-11.714,8.874-15.264,10.294c-2.837,1.417-6.744,2.484-8.519,1.064
		c-1.418-1.064-1.418-3.907,0.354-7.099c2.13-4.612,7.454-11.359,12.068-17.567c7.102-9.231,13.131-15.973,19.345-23.605
		c3.549-4.26,2.129-5.68-7.807-5.68c-11.007,0-13.491,1.42-22.894,11.004c1.063-5.324-1.067-11.714-11.359-12.068
		c-20.766-0.708-43.123,10.648-54.66,20.056c-11.356,8.872-20.762,20.052-21.116,31.408c-0.357,10.651,8.161,14.198,19.344,13.843
		c17.214,0,34.249-13.131,43.479-21.471l0.357,0.353c-2.489,3.197-4.619,8.519-3.907,12.778c1.064,5.327,5.68,8.164,14.196,8.164
		c11.36,0,21.476-5.324,33.896-14.908c5.855-4.612,14.196-11.89,19.168-16.504c0.176-0.177,0.176-0.177,0.354-0.355
		c0.531-0.531,1.418-1.42,2.307-2.306l0,0c0.886-0.889,1.774-1.599,2.306-1.951l0.355,0.353c-5.322,5.682-9.227,12.778-9.227,19.698
		c0,9.584,7.807,16.149,23.601,16.149h0.355c14.553,0,33.187-7.809,45.61-16.504c6.744-4.436,13.841-10.47,18.276-14.553
		c0.182-0.177,0.357-0.177,0.536-0.353c1.063-1.065,3.904-3.548,4.967-4.615l0.355,0.355c-5.677,6.389-9.229,13.131-9.229,19.696
		c-0.354,9.231,4.97,16.859,25.023,16.151c13.841-0.354,28.57-5.679,43.124-15.615c8.163-5.327,16.858-12.424,21.118-16.328
		c0.357-0.354,0.533-0.531,0.889-0.886c0.886-0.713,1.774-1.42,1.953-1.599l0.353,0.354c-6.387,6.744-10.646,14.554-11.001,20.409
		c-0.357,10.648,7.807,14.195,19.344,13.841c17.215,0,34.25-13.131,43.479-21.474l0.355,0.354
		c-2.487,3.197-4.617,8.164-3.905,12.424c1.063,5.327,5.68,8.519,14.198,8.519c11.356,0,21.472-5.324,33.896-14.908
		c6.744-5.324,17.214-14.195,21.474-18.634c2.129-2.13,4.259-4.259,3.191-5.321c-1.063-1.067-3.191,1.063-4.611,2.129
		c-4.26,3.905-9.937,8.874-17.569,14.906c-5.68,4.614-11.714,8.874-15.261,10.294c-3.197,1.417-6.746,2.484-8.52,1.064
		c-1.419-1.064-1.419-3.907,0.355-7.099c2.484-4.973,18.634-26.443,30.346-40.997c21.118-26.085,33.187-40.994,44.9-54.657
		c13.131-14.909,31.055-34.961,40.639-44.188C1130.875,1.576,1126.971,0.51,1122.711,0.51z M893.958,112.49
		c9.226-9.939,15.615-13.486,19.344-13.486c3.194,0,4.614,2.13,3.904,5.324c-0.71,4.612-6.39,13.134-15.615,20.054
		c-8.877,6.39-18.282,9.939-24.669,11.002C880.646,128.287,886.86,120.302,893.958,112.49z M699.099,137.513
		c-9.581,8.874-23.248,16.684-29.99,16.684c-2.484,0-4.259-1.063-4.614-3.55c-0.357-4.614,6.034-14.553,19.699-28.216
		c13.131-12.778,26.442-23.248,33.539-23.248c3.905,0,6.744,1.774,6.39,6.387C723.767,111.428,710.101,127.398,699.099,137.513z
		 M987.835,137.513c-9.581,8.874-23.243,16.684-29.99,16.684c-2.484,0-4.26-1.063-4.614-3.55
		c-0.708-4.614,6.034-14.553,19.699-28.216c13.133-12.778,26.442-23.248,33.187-23.248h0.353c3.905,0,6.747,1.774,6.39,6.387
		C1012.327,111.428,998.841,127.398,987.835,137.513z"/>
</g>
</svg>
