<?xml version="1.0" standalone="no"?>
<!DOCTYPE svg PUBLIC "-//W3C//DTD SVG 20010904//EN"
 "http://www.w3.org/TR/2001/REC-SVG-20010904/DTD/svg10.dtd">
<svg version="1.0" xmlns="http://www.w3.org/2000/svg"
 width="682.000000pt" height="682.000000pt" viewBox="0 0 682.000000 682.000000"
 preserveAspectRatio="xMidYMid meet">
<metadata>
Created by potrace 1.14, written by Peter Selinger 2001-2017
</metadata>
<g transform="translate(0.000000,682.000000) scale(0.100000,-0.100000)"
fill="#000000" stroke="none">
<path d="M878 5725 c-2 -2 -30 -6 -62 -9 -286 -28 -527 -155 -657 -342 -31
-45 -71 -132 -83 -179 -4 -16 -10 -39 -13 -50 -3 -11 -8 -70 -10 -132 -11
-246 64 -433 243 -609 146 -143 307 -236 755 -438 418 -187 547 -263 694 -411
152 -151 219 -315 217 -532 -2 -194 -136 -390 -337 -495 -95 -49 -222 -93
-296 -102 -285 -38 -460 -20 -666 65 -207 87 -398 275 -498 492 -59 129 -63
141 -90 242 -35 128 -43 147 -58 142 -17 -5 -20 -947 -3 -947 7 0 45 43 86 96
41 52 86 109 100 125 l26 30 44 -39 c169 -146 357 -232 590 -267 110 -17 381
-16 490 1 333 53 585 203 714 425 134 232 115 590 -47 844 -135 212 -392 383
-897 597 -180 76 -435 205 -529 268 -228 153 -336 325 -348 551 -5 90 -3 117
15 176 27 88 61 148 119 213 106 118 281 201 473 224 62 8 216 8 270 1 171
-23 275 -56 392 -125 98 -58 229 -192 289 -295 48 -83 108 -231 129 -322 9
-38 16 -50 28 -49 16 3 17 37 20 384 1 245 -1 382 -8 382 -5 0 -45 -44 -88
-99 l-78 -99 -29 25 c-165 135 -364 219 -590 249 -53 6 -301 14 -307 9z"/>
<path d="M2150 5662 c-20 -7 -9 -21 23 -27 56 -12 137 -57 172 -97 59 -65 99
-161 220 -533 64 -198 130 -398 145 -445 41 -126 132 -403 285 -875 75 -231
140 -431 145 -445 5 -14 64 -194 130 -400 67 -206 130 -400 140 -430 17 -51
21 -55 53 -58 41 -4 9 -86 282 728 616 1842 730 2179 736 2172 4 -4 27 -70 52
-147 25 -77 93 -288 152 -470 59 -181 134 -413 167 -515 33 -102 82 -255 110
-340 27 -85 60 -186 73 -225 23 -66 136 -418 312 -963 l78 -243 29 3 c28 3 31
8 79 148 134 395 205 601 302 885 58 171 117 342 129 380 13 39 79 230 146
425 67 195 134 393 150 440 153 452 256 745 279 797 52 110 129 177 235 204
49 12 61 28 24 30 -115 4 -520 0 -534 -5 -15 -6 -5 -12 43 -27 46 -15 69 -29
92 -56 28 -34 35 -54 45 -122 6 -50 -30 -166 -319 -1026 -162 -484 -357 -1063
-432 -1287 -76 -225 -140 -408 -143 -408 -3 0 -24 60 -47 133 -23 72 -61 195
-86 272 -98 306 -283 884 -427 1335 -83 261 -173 543 -200 625 -27 83 -76 238
-110 345 -34 107 -63 200 -65 206 -5 16 -53 23 -69 10 -7 -6 -59 -150 -115
-321 -56 -170 -158 -479 -226 -685 -67 -206 -227 -692 -355 -1080 -296 -900
-280 -852 -287 -864 -4 -6 -10 1 -14 14 -4 14 -43 138 -87 275 -44 138 -153
477 -242 755 -196 614 -287 898 -350 1095 -181 560 -181 561 -167 640 14 81
68 134 151 149 32 6 42 13 33 23 -7 6 -718 11 -737 5z"/>
<path d="M1964 1958 c-8 -13 1 -20 39 -33 56 -18 62 -55 42 -275 -2 -25 -7
-85 -10 -135 -3 -49 -8 -101 -10 -115 -2 -14 -7 -59 -10 -100 -8 -97 -30 -142
-72 -154 -32 -9 -46 -35 -20 -37 47 -4 210 1 215 6 4 4 -1 12 -12 19 -57 35
-58 36 -56 131 1 90 3 115 14 235 3 36 9 95 12 132 3 36 7 75 9 85 2 10 4 25
5 33 0 13 38 -59 95 -185 28 -62 92 -201 171 -370 15 -33 34 -66 41 -73 18
-19 53 -23 89 -12 30 10 33 14 84 135 5 11 23 51 39 88 17 38 31 71 31 74 0 4
41 101 79 188 10 22 33 78 52 124 l34 84 7 -48 c4 -26 9 -80 13 -121 6 -71 9
-112 20 -214 22 -226 20 -241 -51 -275 -34 -16 -36 -19 -20 -30 9 -7 29 -11
44 -9 35 5 209 4 246 -1 61 -8 75 18 21 40 -56 24 -63 49 -80 260 -12 153 -16
203 -20 240 -11 103 -16 226 -10 245 4 12 22 28 41 36 19 8 34 21 34 28 0 13
-83 15 -236 7 -7 -1 -26 -38 -44 -83 -18 -46 -38 -96 -45 -113 -7 -16 -36 -86
-65 -155 -28 -69 -58 -138 -65 -155 -49 -109 -63 -143 -70 -164 -9 -30 -16
-21 -55 69 -18 41 -45 102 -60 135 -38 83 -155 362 -177 420 l-18 48 -133 2
c-76 2 -135 -1 -138 -7z"/>
<path d="M3902 1952 c2 -9 17 -19 34 -24 56 -14 58 -27 57 -371 -1 -360 -4
-376 -73 -405 -39 -17 -52 -36 -28 -44 6 -2 33 -1 60 2 26 4 63 6 81 4 67 -4
122 -6 135 -5 26 2 10 27 -28 43 -67 28 -71 49 -76 357 l-3 266 52 -56 c44
-47 93 -102 184 -206 92 -104 125 -142 143 -163 12 -14 49 -56 83 -95 161
-181 158 -179 195 -148 21 17 21 28 24 378 3 405 3 403 76 443 23 13 40 27 37
32 -7 12 -300 7 -299 -5 1 -5 19 -19 40 -30 67 -35 73 -64 74 -370 1 -105 1
-194 1 -199 -1 -10 -18 8 -93 95 -26 30 -57 66 -70 80 -13 15 -41 48 -63 75
-22 26 -44 52 -50 58 -5 6 -32 38 -59 71 -27 33 -54 65 -60 70 -6 6 -24 28
-41 50 -16 22 -33 45 -37 50 -4 6 -16 21 -26 34 -17 22 -25 23 -146 26 -112 3
-127 1 -124 -13z"/>
</g>
</svg>
