<svg width="201" height="133" fill="none" xmlns="http://www.w3.org/2000/svg"><path d="M52.103 92.296s-1.675-3.75-1.864-4.345c-.082-.256-.075-.302-.248-.302-.181 0-.468.038-.792.038-.159 0-.506-.075-.687-.075-.113 0-.18.052-.18.128 0 .083.044.12.218.15.31.053.422.234.422.536 0 .302-.241 3.432-.34 4.036-.052.347-.127.543-.437.603-.196.038-.218.083-.218.144 0 .082.068.12.18.12.227 0 .43-.022.634-.022.174 0 .423.022.574.022.097 0 .143-.045.143-.113 0-.06-.038-.113-.128-.12-.189-.023-.34-.167-.355-.393-.045-.701.287-3.749.287-3.749s1.78 3.847 1.885 4.058c.106.212.159.332.52.332.318 0 .408-.105.506-.332.151-.347 1.826-4.314 1.826-4.314s.347 3.575.347 3.741c0 .302-.114.566-.423.626-.173.03-.218.068-.218.151 0 .076.067.128.18.128.182 0 .747-.075.989-.075.241 0 .814.075.995.075.114 0 .181-.052.181-.128 0-.083-.045-.12-.218-.15-.31-.054-.393-.325-.43-.627-.045-.34-.34-3.711-.34-4.013 0-.302.015-.483.325-.535.173-.03.218-.068.218-.151 0-.076-.068-.128-.18-.128-.182 0-.529.075-.687.075-.324 0-.46-.038-.641-.038-.174 0-.211.25-.355.604-.392.988-1.69 4.043-1.69 4.043zm8.181-4.76c-.196 0-.249.098-.332.272-.995 2.09-1.916 4.126-2.225 4.722-.158.309-.271.475-.58.535-.197.038-.22.06-.22.144 0 .105.076.135.19.135.226 0 .399-.037.995-.037.256 0 .505.022.656.022.098 0 .143-.045.143-.113 0-.06-.037-.113-.128-.12-.188-.023-.309-.121-.309-.333 0-.143.113-.543.28-1.033h2.368c.233.596.414 1.086.414 1.17 0 .127-.15.18-.264.195-.09.015-.128.06-.128.121 0 .068.046.113.144.113.15 0 .4-.022.656-.022.596 0 1.109.037 1.297.037.151 0 .227-.03.227-.135 0-.084-.023-.106-.22-.144-.308-.06-.444-.324-.595-.641-.581-1.192-1.901-4.254-2.052-4.624-.068-.166-.136-.264-.317-.264zm-.475 1.501c.023-.045.053-.083.098-.083.045 0 .06.023.09.076.069.128.559 1.297.974 2.315h-2.082c.294-.822.679-1.78.92-2.308zm10.817 1.66c.173-.03.219-.068.219-.151 0-.076-.068-.128-.181-.128-.181 0-.747.075-.989.075-.24 0-.814-.075-.995-.075-.113 0-.181.052-.181.128 0 .083.045.12.219.15.309.053.43.325.43.627v.882c0 .302-.068.71-1.087.71-.943 0-2.172-.582-2.172-2.241 0-2.127 1.139-2.693 2.15-2.693.867 0 1.274.355 1.606.996.06.12.121.264.234.264.068 0 .143-.03.143-.128 0-.121-.098-.808-.098-1.192 0-.204-.068-.287-.173-.287-.106 0-.257.068-.445.068-.189 0-.49-.166-1.222-.166-1.516 0-3.523.777-3.523 3.108 0 2.202 1.84 2.776 3.1 2.776 1.373 0 1.871-.619 2.316-.619.174 0 .287-.038.287-.196 0-.136-.06-.181-.06-.4v-.882c0-.302.113-.566.422-.626zm1.362 2.647c.18 0 .664-.075.905-.075s1.116.075 1.75.075c2.255 0 3.16-1.365 3.16-3.047 0-1.946-1.5-2.685-2.805-2.685-.52 0-.838.037-1.6.037-.761 0-1.297-.037-1.41-.037-.113 0-.189.03-.189.135 0 .083.023.106.219.144.31.06.43.324.43.626v3.922c0 .302-.12.566-.43.626-.196.038-.219.06-.219.144 0 .105.076.135.189.135zm4.646-3.032c0 1.516-.573 2.61-2.157 2.61h-.686c-.197 0-.287-.12-.287-.325v-4.246c0-.227.189-.377.867-.377 1.35 0 2.263.633 2.263 2.338zm5.152-2.776c-.197 0-.25.098-.332.272-.996 2.09-1.916 4.126-2.225 4.722-.159.309-.272.475-.581.535-.197.038-.22.06-.22.144 0 .105.076.135.19.135.226 0 .4-.037.995-.037.257 0 .505.022.656.022.099 0 .144-.045.144-.113 0-.06-.038-.113-.129-.12-.188-.023-.309-.121-.309-.333 0-.143.113-.543.28-1.033h2.368c.234.596.415 1.086.415 1.17 0 .127-.151.18-.264.195-.09.015-.129.06-.129.121 0 .068.046.113.144.113.15 0 .4-.022.656-.022.596 0 1.109.037 1.297.037.151 0 .227-.03.227-.135 0-.084-.023-.106-.219-.144-.31-.06-.445-.324-.596-.641-.58-1.192-1.9-4.254-2.052-4.624-.068-.166-.135-.264-.316-.264zm-.476 1.501c.023-.045.053-.083.098-.083.046 0 .06.023.09.076.069.128.56 1.297.974 2.315H80.39c.294-.822.679-1.78.92-2.308zm15.197 2.738s-2.89-3.296-3.221-3.824c-.159-.256-.211-.302-.385-.302-.18 0-.332.038-.656.038-.159 0-.505-.075-.687-.075-.113 0-.18.052-.18.128 0 .083.045.12.218.15.31.053.423.234.423.536 0 .302.03 3.244-.023 3.9-.03.347-.143.656-.52.74-.197.044-.22.082-.22.142 0 .084.069.121.182.121.226 0 .618-.068.822-.068.204 0 .603.068.83.068.113 0 .18-.037.18-.12 0-.06-.022-.099-.218-.144-.377-.083-.49-.392-.52-.739-.053-.656-.06-3.447-.06-3.447s3.582 4.066 3.778 4.284c.129.144.219.257.415.257.272 0 .272-.317.272-.49 0-.4-.008-3.659.045-4.315.03-.347.143-.656.52-.74.197-.045.22-.082.22-.143 0-.083-.069-.12-.182-.12-.226 0-.618.068-.822.068-.204 0-.604-.068-.83-.068-.113 0-.18.037-.18.12 0 .06.022.098.218.144.377.082.49.392.52.739.053.656.06 3.16.06 3.16zm5.21-4.239c-.196 0-.248.098-.331.272-.996 2.09-1.916 4.126-2.226 4.722-.158.309-.271.475-.58.535-.197.038-.22.06-.22.144 0 .105.076.135.19.135.226 0 .4-.037.995-.037.257 0 .505.022.656.022.098 0 .144-.045.144-.113 0-.06-.038-.113-.129-.12-.188-.023-.309-.121-.309-.333 0-.143.113-.543.279-1.033h2.369c.234.596.415 1.086.415 1.17 0 .127-.151.18-.264.195-.091.015-.129.06-.129.121 0 .068.046.113.144.113.151 0 .399-.022.656-.022.596 0 1.109.037 1.297.037.151 0 .227-.03.227-.135 0-.084-.023-.106-.219-.144-.309-.06-.445-.324-.596-.641-.581-1.192-1.901-4.254-2.052-4.624-.068-.166-.136-.264-.317-.264zm-.475 1.501c.023-.045.053-.083.098-.083.046 0 .061.023.091.076.068.128.558 1.297.973 2.315h-2.082c.294-.822.679-1.78.92-2.308zm6.525 2.007c.143 0 .301 0 .475-.008.37.166.634.785 1.222 1.69.362.558 1.018.626 1.516.626s.686-.09.686-.204c0-.075-.052-.113-.143-.128-.701-.106-1.169-.807-1.599-1.486-.264-.407-.52-.55-.701-.604.113-.022.218-.052.331-.083.8-.24 1.396-.799 1.396-1.674 0-1.056-.8-1.561-1.863-1.561-.521 0-1.26.075-2.022.075-.241 0-.814-.075-.995-.075-.114 0-.181.052-.181.128 0 .083.045.12.218.15.31.053.43.325.43.627v3.922c0 .302-.12.573-.43.626-.173.03-.218.068-.218.151 0 .076.067.128.181.128.181 0 .754-.075.995-.075.242 0 .807.075.988.075.114 0 .181-.052.181-.128 0-.083-.045-.12-.218-.15-.31-.061-.423-.325-.423-.627V91.3c0-.166.03-.256.174-.256zm-.174-2.693c0-.227.189-.377.868-.377.95 0 1.373.437 1.373 1.161 0 .822-.453 1.23-.966 1.365-.422.106-.573.121-1.026.121-.196 0-.249-.045-.249-.249v-2.021zm8.191 2.308c.309 0 .482-.008.731.158s.355.513.475.513c.068 0 .121-.06.121-.158 0-.12-.113-.475-.113-.852 0-.378.083-.581.083-.664 0-.083-.053-.129-.121-.129-.113 0-.188.295-.528.49-.452.257-1.176.205-1.629.205-.196 0-.249-.046-.249-.25v-1.621c0-.227.189-.377.868-.377 1.32 0 1.795.414 2.127 1.056.06.12.098.21.211.21.068 0 .128-.052.128-.15 0-.12-.188-.8-.188-1.184 0-.204-.083-.31-.272-.31-.204 0-.521.053-2.98.053-.761 0-1.297-.037-1.41-.037-.113 0-.189.03-.189.135 0 .083.023.106.219.144.309.06.43.324.43.626v3.922c0 .302-.121.566-.43.626-.196.038-.219.06-.219.144 0 .105.076.135.189.135.181 0 .664-.075.905-.075 2.459 0 3.432.09 3.636.09.188 0 .271-.105.271-.309 0-.385.378-1.252.378-1.373 0-.098-.053-.158-.121-.158-.083 0-.136.053-.219.188-.362.596-.739.958-1.26 1.087-.52.128-1.614.128-1.689.128-.196 0-.385-.12-.385-.325V90.9c0-.226.189-.241 1.23-.241zm8.527-2.459c-.075-.211-.158-.513-.362-.513-.166 0-.279.302-.362.505l-1.342 3.576c-.023.045-.053.083-.099.083-.045 0-.06-.023-.09-.076-.121-.218-1.162-3.47-1.162-3.718 0-.129.151-.181.264-.197.091-.015.129-.06.129-.12 0-.068-.046-.113-.144-.113-.151 0-.4.022-.656.022-.596 0-1.109-.037-1.297-.037-.151 0-.227.03-.227.135 0 .083.023.106.219.144.309.06.49.309.596.64.37 1.155 1.297 4.255 1.448 4.625a.44.44 0 00.415.264c.196 0 .377-.068.46-.272l1.441-3.658 1.546 3.666c.068.166.166.264.438.264.256 0 .339-.106.475-.483.732-1.991 1.426-3.915 1.735-4.51.158-.31.271-.476.581-.536.196-.038.218-.06.218-.144 0-.105-.075-.135-.188-.135-.226 0-.4.037-.996.037-.256 0-.505-.022-.656-.022-.098 0-.143.045-.143.113 0 .06.037.113.128.12.188.023.309.121.309.332 0 .415-.679 2.693-1.033 3.727-.015.045-.053.083-.098.083-.046 0-.061-.023-.091-.076l-1.456-3.726zm7.371-.219c.868 0 1.275.355 1.607.996.06.12.121.264.234.264.068 0 .143-.03.143-.128 0-.121-.098-.808-.098-1.192 0-.204-.068-.287-.173-.287-.106 0-.257.068-.445.068-.189 0-.491-.166-1.222-.166-.732 0-2.014.347-2.014 1.607 0 1.644 3.379 1.44 3.379 2.942 0 .384-.362.912-1.124.912-.867 0-1.546-.505-1.848-1.342-.045-.129-.076-.264-.189-.264-.068 0-.143.03-.143.128 0 .068.03.324.038.618 0 .212-.053.498-.053.657 0 .203.053.249.158.249.106 0 .302 0 .483.045.279.068.777.332 1.509.332 1.093 0 2.142-.71 2.142-1.909 0-1.704-3.281-1.674-3.281-2.881 0-.415.369-.649.897-.649zm7.198 4.413c.212.286.31.445.31.543 0 .098-.076.136-.264.158-.091.008-.129.06-.129.121 0 .068.046.113.144.113.151 0 .995-.022 1.252-.022.596 0 .769.037.996.037.113 0 .188-.03.188-.135 0-.084-.022-.106-.219-.144-.309-.06-.543-.241-.852-.603-.136-.159-1.908-2.512-1.908-2.603 0-.09 1.086-1.131 1.508-1.493.423-.362.619-.415.928-.475.196-.038.219-.06.219-.144 0-.105-.076-.135-.189-.135-.226 0-.4.037-.995.037-.257 0-.657-.022-.808-.022-.098 0-.143.045-.143.113 0 .06.038.113.128.12.189.023.264.06.264.159 0 .098-.098.256-.309.543-.204.272-1.26 1.403-1.856 1.856v-1.901c0-.302.114-.566.423-.626.173-.03.219-.068.219-.151 0-.076-.068-.128-.181-.128-.181 0-.747.075-.989.075-.241 0-.814-.075-.995-.075-.113 0-.181.052-.181.128 0 .083.045.12.219.15.309.053.429.325.429.627v3.922c0 .302-.12.573-.429.626-.174.03-.219.068-.219.151 0 .076.068.128.181.128.181 0 .754-.075.995-.075.242 0 .808.075.989.075.113 0 .181-.052.181-.128 0-.083-.046-.12-.219-.15-.309-.061-.423-.325-.423-.627v-1.508c.114-.114.302-.28.393-.28.135 0 1.342 1.743 1.342 1.743zm6.915-4.858c-.196 0-.249.098-.332.272-.995 2.09-1.915 4.126-2.225 4.722-.158.309-.271.475-.581.535-.196.038-.218.06-.218.144 0 .105.075.135.188.135.227 0 .4-.037.996-.037.256 0 .505.022.656.022.098 0 .144-.045.144-.113 0-.06-.038-.113-.129-.12-.188-.023-.309-.121-.309-.333 0-.143.113-.543.279-1.033h2.369c.233.596.415 1.086.415 1.17 0 .127-.151.18-.265.195-.09.015-.128.06-.128.121 0 .068.046.113.144.113.15 0 .399-.022.656-.022.596 0 1.109.037 1.297.037.151 0 .227-.03.227-.135 0-.084-.023-.106-.219-.144-.309-.06-.445-.324-.596-.641-.581-1.192-1.901-4.254-2.052-4.624-.068-.166-.136-.264-.317-.264zm-.475 1.501c.023-.045.053-.083.098-.083.045 0 .061.023.091.076.068.128.558 1.297.973 2.315H144.4c.294-.822.679-1.78.92-2.308z" fill="#341713"/><path fill-rule="evenodd" clip-rule="evenodd" d="M101.547 2.19L100.466 0l-1.08 2.19-2.417.35 1.748 1.705-.412 2.407 2.161-1.136 2.161 1.136-.412-2.407 1.748-1.704-2.416-.351zm.986.816l-1.428-.208-.639-1.294-.639 1.294-1.428.208 1.034 1.007-.245 1.423 1.278-.672 1.277.672-.243-1.423 1.033-1.007zm42.279 18.707l-1.08-2.19-1.081 2.19-2.417.35 1.749 1.705-.413 2.407 2.162-1.136 2.161 1.136-.413-2.407 1.749-1.704-2.417-.351zm.987.816l-1.429-.208-.638-1.294-.639 1.294-1.428.208 1.033 1.007-.244 1.422 1.278-.671 1.277.672-.244-1.423 1.034-1.007zm-91.502 89.257l-1.081-2.19-1.08 2.19-2.417.351 1.748 1.705-.412 2.406 2.161-1.136 2.161 1.136-.412-2.406 1.748-1.705-2.416-.351zm.986.816l-1.428-.208-.639-1.294-.639 1.294-1.428.208 1.033 1.007-.244 1.423 1.278-.672 1.277.672-.244-1.423 1.034-1.007z" fill="#341713"/><path d="M159.476 45.83a1.109 1.109 0 11-2.218 0 1.109 1.109 0 012.218 0zm-119.796 0a1.11 1.11 0 11-2.22 0 1.11 1.11 0 012.22 0zm0 44.592a1.11 1.11 0 11-2.22 0 1.11 1.11 0 012.22 0zm119.796 0a1.109 1.109 0 11-2.218.001 1.109 1.109 0 012.218 0z" fill="#341713"/><path fill-rule="evenodd" clip-rule="evenodd" d="M38.568 44.72a64.34 64.34 0 00-.423 1.11h.71c.115-.305.231-.608.35-.91-.18-.126-.399-.2-.635-.2h-.002zm1.406-1.665C49.017 22.077 69.013 6.93 92.758 4.818a7.846 7.846 0 01-.05-.664C68.7 6.285 48.485 21.604 39.352 42.819c.218.056.427.136.623.236zM108.11 5.289a63.372 63.372 0 0129.705 12.881c.145-.17.296-.333.455-.49A64.037 64.037 0 00108.2 4.63a7.64 7.64 0 01-.09.66zm49.98 40.54c-.115-.305-.232-.61-.352-.914.179-.123.396-.195.629-.195h.01c.145.368.286.738.424 1.11h-.711zm-8.866-17.14a64.32 64.32 0 018.37 14.128 3.099 3.099 0 00-.624.234 63.65 63.65 0 00-8.238-13.91c.17-.144.335-.295.492-.452zm8.584 62.692c.124-.319.246-.638.365-.959h.71c-.136.37-.275.739-.417 1.105a1.13 1.13 0 01-.658-.146zm-.128 2.074a3.072 3.072 0 01-.631-.216c-9.718 22.737-32.286 38.67-58.576 38.67a63.4 63.4 0 01-39.343-13.606c-.144.17-.296.333-.454.49a64.066 64.066 0 0039.797 13.782c26.582 0 49.399-16.121 59.207-39.12zM48.214 107.333a63.622 63.622 0 01-8.318-14.097c-.2.094-.411.167-.631.218a64.302 64.302 0 008.457 14.331 7.76 7.76 0 01.492-.452zm-10.151-16.91c.136.37.275.738.417 1.105a1.116 1.116 0 00.656-.151 63.997 63.997 0 01-.364-.955h-.71z" fill="#341713"/><path d="M1.561 63.026c0-2.204 1.99-3.858 4.899-3.858 2.755 0 5.51 1.225 6.337 5.266h.245v-5.051h-.122l-1.041 1.316c-1.225-1.163-3-1.898-5.388-1.898-3.368 0-6.185 1.623-6.185 4.898 0 7.44 12.645 5.848 12.645 12.767 0 2.603-2.511 4.256-5.726 4.256-2.755 0-6-1.408-6.98-6.337H0v6.276h.122l1.348-1.715c1.592 1.5 3.306 2.143 5.847 2.143 3.552 0 6.889-1.683 6.889-5.357 0-7.838-12.645-6.185-12.645-12.706zm24.169-3.429c2.45 0 3.582.704 4.47 3.092h.245l-.765-3.46H14.678l-.766 3.46h.245c.888-2.388 2.02-3.092 4.47-3.092h2.756v18.676c0 1.377-.43 2.112-1.562 2.235v.153h4.715v-.153c-1.133-.123-1.561-.858-1.561-2.235V59.597h2.755zm20.148 2.021c0-1.378.428-2.113 1.561-2.235v-.153h-3.551v.153c1.132.122 1.561.857 1.561 2.235V74.17c0 3.98-2.725 6.368-6.093 6.368-3.306 0-5.786-2.235-5.786-6.368V61.618c0-1.378.398-2.113 1.53-2.235v-.153h-4.653v.153c1.133.122 1.531.857 1.531 2.235v12.4c0 5.05 3.062 7.071 7.072 7.071 4.011 0 6.828-2.48 6.828-7.072v-12.4zm3.728 16.655c0 1.377-.429 2.112-1.562 2.235v.153h7.44c6.43 0 10.869-4.287 10.869-10.716 0-6.43-4.44-10.715-10.87-10.715h-7.439v.153c1.133.122 1.562.857 1.562 2.235v16.655zm1.592-18.676h3.827c5.51 0 9.552 4.072 9.552 10.348 0 6.276-4.041 10.348-9.552 10.348h-3.827V59.597zm17.171 18.706c0 1.378-.429 1.96-1.562 2.235v.123h4.654v-.123c-1.133-.275-1.562-.857-1.562-2.235V61.587c0-1.378.429-1.96 1.562-2.235v-.122h-4.654v.122c1.133.276 1.562.857 1.562 2.235v16.716zm3.564-8.358c0 6.889 4.745 11.144 11.175 11.144 6.43 0 11.175-4.255 11.175-11.144 0-6.888-4.746-11.144-11.175-11.144-6.43 0-11.175 4.256-11.175 11.144zm1.776 0c0-6.735 4.194-10.777 9.399-10.777 5.204 0 9.399 4.042 9.399 10.777 0 6.736-4.195 10.777-9.4 10.777-5.204 0-9.398-4.041-9.398-10.777zm33.809 11.145h.459l6.46-19.289 6.246 19.288h.367l6.644-19.471c.489-1.47 1.041-2.052 2.173-2.235v-.153h-3.704v.153c1.133.122 1.5.949 1.071 2.235l-5.725 17.053-6.215-19.441h-.459l-6.46 19.624-5.511-17.236c-.429-1.317-.061-2.113 1.072-2.235v-.153h-4.93v.153c1.133.183 1.684.734 2.174 2.235l6.338 19.471z" fill="#341713"/><path d="M131.132 78.303c0 1.378-.428 1.96-1.561 2.235v.123h4.654v-.123c-1.133-.275-1.562-.857-1.562-2.235V61.587c0-1.378.429-1.96 1.562-2.235v-.122h-4.654v.122c1.133.276 1.561.857 1.561 2.235v16.716zm5.096-19.073l-.766 3.46h.245c.888-2.389 2.021-3.093 4.47-3.093h7.531l-13.164 21.064h14.297l.919-4.133h-.245c-1.286 3.092-2.266 3.765-5.94 3.765h-6.98L149.76 59.23h-13.532zm17.256 14.603c.796-.918 1.745-1.071 2.48-1.071 1.378 0 2.265 1.04 4.041 1.04.98 0 1.929-.49 2.572-1.408l2.265 5.879c.429 1.133.398 2.051-.857 2.235v.153h4.654v-.153c-1.102-.245-1.715-1.041-2.174-2.235l-7.317-19.043h-1.623l.551 1.439-6.766 17.604c-.459 1.194-1.071 1.99-2.174 2.235v.153h3.491v-.153c-1.256-.184-1.286-1.102-.858-2.235l1.715-4.44zm6.644-.704c-1.378 0-2.266-1.04-4.042-1.04-.857 0-1.745.397-2.388 1.132l4.593-11.97 4.225 10.93c-.766.795-1.684.948-2.388.948z" fill="#341713"/><path d="M174.585 54.178c0 .612.459 1.072 1.072 1.072.612 0 1.071-.46 1.071-1.072 0-.612-.459-1.072-1.071-1.072-.613 0-1.072.46-1.072 1.072zm-4.868 5.052l-.765 3.46h.245c.888-2.389 2.02-3.093 4.47-3.093h7.531l-13.165 21.064h14.298l.918-4.133h-.244c-1.286 3.092-2.266 3.765-5.94 3.765h-6.98l13.164-21.063h-13.532zm29.258 2.388c0-1.378.429-2.113 1.561-2.235v-.153h-3.551v.153c1.133.122 1.561.857 1.561 2.235V74.17c0 3.98-2.724 6.368-6.092 6.368-3.307 0-5.787-2.235-5.787-6.368V61.618c0-1.378.398-2.113 1.531-2.235v-.153h-4.653v.153c1.132.122 1.53.857 1.53 2.235v12.4c0 5.05 3.062 7.071 7.073 7.071 4.01 0 6.827-2.48 6.827-7.072v-12.4z" fill="#341713"/></svg>