<?xml version="1.0" encoding="utf-8"?>
<svg viewBox="-91.244 81.806 608.549 291.553" xmlns="http://www.w3.org/2000/svg">
  <path d="M468.4,146.5h-10.5v128.1h10.5v5h-38.3v-5h10.6V146.5h-24.8v137.6l-82.1-130.5v121h10.6v5h-68.7v-5h16.2l-12.6-38.8h-43 L223,274.6h11.7v5h-62.4v-5h10.5v-117L142,281.1L98.9,161.2v113.4h11.5v5H71.9c-9.8,0-27.7-7.6-27.7-35.7v-11.9 c0-16-8-22.7-23.9-22.7H9.3v65.3h16.3v5h-89.8v-5H-48l-12.6-38.8h-43l-13.2,38.8h11.7v5h-26.4v-5h9.3l47.3-139.1l45.8,139.1h21.2 V146.5h-10.5v-5h41.2c27.4,0,41.6,14.9,41.6,34.6c0,13.8-9.1,26.7-22.2,30.8c15,4.4,19.9,17.4,19.9,32.8v20.2 c0,9.2,5.2,14.7,11.1,14.7h20.9V146.5H83.6v-5h27.3l36.8,105l35.1-105h27.8v5H200v128.1h17.6l47.3-139.1l45.9,139.1h18.2V146.5 h-10.5v-5h29.4l63.2,100.5v-95.5h-10.5v-5h67.9V146.5z" transform="matrix(1, 0, 0, 1, 43.47802, -48.732777)"/>
  <polygon class="st0" points="237.7,230.9 277.6,230.9 257.9,170.4 " transform="matrix(1, 0, 0, 1, 43.47802, -48.732777)" style="fill: rgb(255, 255, 255);"/>
  <path class="st0" d="M20.2,204.4c16.7,0,24.9-16.6,24.9-27.5c0-19.7-10.8-30.3-26.8-30.3H9.3v57.8H20.2z" transform="matrix(1, 0, 0, 1, 43.47802, -48.732777)" style="fill: rgb(255, 255, 255);"/>
  <polygon class="st0" points="-102.1,230.9 -62.2,230.9 -81.9,170.4 " transform="matrix(1, 0, 0, 1, 43.47802, -48.732777)" style="fill: rgb(255, 255, 255);"/>
  <path d="M320.1,360.7h6.5l-17.3,43.8c-3.5,8.8-7.5,12-13.7,12c-3.4,0-6-0.7-8.8-2.1l2.1-5c2,1.1,3.8,1.6,6.4,1.6c3.7,0,6-2,8.4-8 l-18.7-42.3h6.7l15,35.4" transform="matrix(1, 0, 0, 1, 43.47802, -48.732777)"/>
  <path d="M251.4,391.9v-25.6h-5.7v-5.6h5.7v-12.8h6.1v12.8h13v5.6h-13v24.8c0,5.2,2.8,7.1,6.9,7.1c2.1,0,3.8-0.4,6-1.5v5.4 c-2.1,1.2-4.5,1.8-7.4,1.8C256.4,403.9,251.4,400.6,251.4,391.9" transform="matrix(1, 0, 0, 1, 43.47802, -48.732777)"/>
  <path d="M191.7,387.1v-26.4h6.1v24.8c0,7.9,4.1,12.8,11.4,12.8c7,0,12.3-5.3,12.3-13.3v-24.3h6v42.4h-6v-7.4 c-2.8,4.6-7,8.3-14.1,8.3C197.5,404.1,191.7,397.2,191.7,387.1" transform="matrix(1, 0, 0, 1, 43.47802, -48.732777)"/>
  <path d="M135.3,390.9v-0.2c0-8.9,7.2-13.7,17.6-13.7c5.2,0,9,0.7,12.6,1.8v-1.5c0-7.6-4.5-11.6-12.2-11.6c-4.8,0-8.7,1.3-12.5,3.1 l-1.8-5.2c4.5-2.1,9-3.5,15-3.5c5.8,0,10.3,1.6,13.3,4.7c2.8,2.9,4.2,7,4.2,12.4v26h-5.9v-6.4c-2.9,3.8-7.6,7.3-14.9,7.3 C143,404.1,135.3,399.6,135.3,390.9 M165.6,387.6v-4.1c-3-0.9-7.1-1.8-12.1-1.8c-7.7,0-12,3.4-12,8.8v0.2c0,5.3,4.8,8.4,10.3,8.4 C159.4,399.1,165.6,394.3,165.6,387.6" transform="matrix(1, 0, 0, 1, 43.47802, -48.732777)"/>
  <path d="M80.9,382.1v-0.2c0-12.2,8.3-22.1,19.7-22.1c12.2,0,19.2,10,19.2,22.4l-0.1,2H87.1c0.9,9.2,7.2,14.4,14.5,14.4 c5.6,0,9.6-2.4,12.9-6l3.8,3.5c-4.1,4.8-9.1,8-16.9,8C90.1,404.2,80.9,395.2,80.9,382.1 M113.6,379.6c-0.6-7.7-4.9-14.4-13.1-14.4 c-7.2,0-12.6,6.2-13.4,14.4H113.6z" transform="matrix(1, 0, 0, 1, 43.47802, -48.732777)"/>
  <path d="M28.9,395.1v8.1h-6.1v-59.9h6.1v26c3.3-5.1,8.2-9.4,15.7-9.4c9.8,0,19.6,8,19.6,22v0.2c0,13.9-9.7,22.1-19.6,22.1 C37,404.1,32,399.8,28.9,395.1 M57.9,382.1v-0.2c0-10-6.7-16.4-14.5-16.4c-7.6,0-14.9,6.6-14.9,16.3v0.2c0,9.9,7.2,16.4,14.9,16.4 C51.4,398.4,57.9,392.3,57.9,382.1" transform="matrix(1, 0, 0, 1, 43.47802, -48.732777)"/>
</svg>