<?xml version="1.0" encoding="utf-8"?>
<svg viewBox="344.087 125.945 467.896 72.773" xmlns="http://www.w3.org/2000/svg">
  <g transform="matrix(1, 0, 0, 1, 78.676041, -339.484924)">
    <path style="fill-rule:evenodd;clip-rule:evenodd;" d="M432.663,494.847c1.679,0.924,3.815,1.393,6.309,1.393 c2.532,0,4.571-0.469,6.324-1.393c1.783-0.844,2.62-1.951,2.62-3.169c0-1.299-0.837-2.311-2.62-3.162 c-1.753-0.933-3.792-1.387-6.324-1.293c-2.494-0.094-4.556,0.36-6.309,1.293c-1.761,0.851-2.59,1.862-2.59,3.162 C430.073,492.896,430.901,494.003,432.663,494.847L432.663,494.847z"/>
    <path style="fill-rule:evenodd;clip-rule:evenodd;" d="M559.618,494.743c1.679,0.843,3.821,1.307,6.33,1.307 c2.415,0,4.557-0.463,6.31-1.307c1.782-0.924,2.612-1.959,2.612-3.161c0-1.299-0.83-2.407-2.612-3.243 c-1.754-0.837-3.896-1.306-6.31-1.306c-2.51,0-4.549,0.469-6.33,1.306c-1.754,0.835-2.59,1.943-2.59,3.243 C557.028,492.785,557.863,493.819,559.618,494.743L559.618,494.743z"/>
    <path style="fill-rule:evenodd;clip-rule:evenodd;" d="M723.29,519.46c0,0-108.188,0-108.863,0 c-22.83-2.905-24.938-12.81-25.561-16.369c0-0.004,0-0.022,0-0.029c-0.004-0.232-0.096-2.158-0.129-2.8 c0.026-0.098,0.066-0.187,0.085-0.288c2.005-10.703,10.294-16.668,25.304-18.238c0.609,0,108.901,0,108.901,0 c2.568,0,4.629-2.075,4.629-4.651c0-2.569-2.061-4.652-4.629-4.652H613.804c-0.163,0-0.304,0.024-0.462,0.03 c-24.26,2.485-31.696,15.374-33.63,25.763c-0.216,0.554-0.324,1.162-0.293,1.815l0.227,4.093c0,0.185,0,0.148,0.014,0.315 c0.704,4.107,2.248,7.707,4.59,10.815l-20.612-11.466l-58.413-32.432c-1.46-1.193-3.565-1.437-5.296-0.428l-78.593,45.826v-41.16 c0-2.56-2.084-4.643-4.658-4.643c-0.437,0-0.851,0.079-1.253,0.193c-0.634,0.018-1.274,0.158-1.879,0.453l-69.718,33.642 c-0.329,0.16-0.624,0.362-0.897,0.583l-7.477,3.702l8.029,4.042c0.68,0.346,1.404,0.486,2.12,0.482 c0.759,0.042,1.536-0.079,2.267-0.43l64.165-30.961v41.444c0,1.388,0.61,2.615,1.564,3.468c1.435,1.692,3.907,2.179,5.889,1.008 l27.758-16.176c0.049,0.01,0.093,0.028,0.142,0.035l15.671-9.237h-0.024l39.222-22.857l41.196,22.857h-72.36l-15.921,9.296H560.2 l30.163,16.801c2.244,1.239,5.077,0.44,6.317-1.806c0.488-0.877,0.652-1.841,0.548-2.767c4.573,1.879,10.005,3.21,16.29,3.992 c0.183,0.022,0.368,0.044,0.572,0.044H723.29c2.568,0,4.651-2.075,4.651-4.659C727.941,521.543,725.857,519.46,723.29,519.46 L723.29,519.46z"/>
    <path style="fill-rule:evenodd;clip-rule:evenodd;" d="M278.984,470.615c-2.285-1.167-5.087-0.234-6.239,2.047 c-0.318,0.63-0.468,1.293-0.489,1.952c-0.115,0.408-0.197,0.829-0.197,1.275v48.501c0,2.573,2.073,4.659,4.648,4.659 c2.56,0,4.644-2.085,4.644-4.659v-42.158l49.63,25.043l10.435-5.137L278.984,470.615L278.984,470.615z"/>
  </g>
</svg>