<?xml version="1.0" encoding="utf-8"?>
<!-- Generator: Adobe Illustrator 16.0.0, SVG Export Plug-In . SVG Version: 6.00 Build 0)  -->
<!DOCTYPE svg PUBLIC "-//W3C//DTD SVG 1.1//EN" "http://www.w3.org/Graphics/SVG/1.1/DTD/svg11.dtd">
<svg version="1.1" id="Layer_1" xmlns="http://www.w3.org/2000/svg" xmlns:xlink="http://www.w3.org/1999/xlink" x="0px" y="0px"
	 width="1245px" height="417px" viewBox="0 0 1245 417" enable-background="new 0 0 1245 417" xml:space="preserve">
<g>
	<path fill="#010202" d="M89.648,1.095c0,32.844,0.498,65.688,0,98.532c0,10.451,3.485,12.937,12.937,12.443
		c15.427-0.996,31.35,0,47.275,0c0,10.95,0,20.406,0,31.351c-16.423,0-32.844,0.498-48.769,0
		c-8.958-0.498-11.945,1.992-11.945,11.45c0.498,80.121,0,160.738,0,240.862c0,3.984,0,8.462,0,12.937c-12.444,0-23.389,0-36.331,0
		c0-4.475-0.498-8.459-0.498-12.937c0-80.124,0-160.243,0-239.869c0-9.953-2.489-13.435-12.937-12.937
		c-12.937,0.996-25.878,0-39.313,0c0-10.451,0-19.907,0-31.35c13.435,0,26.874-0.498,40.309,0
		c8.958,0.498,11.945-2.489,11.945-11.946c-0.995-33.342-0.995-66.186-0.995-99.528C64.269,1.095,76.712,1.095,89.648,1.095z"/>
	<path fill="#010202" d="M861.51,1.095c0,33.342,0.498,67.183,0,100.524c0,8.459,2.988,10.949,10.949,10.451
		c16.423-0.498,32.846,0,49.766,0c0,10.95,0,20.406,0,31.351c-19.908,0-39.313,0-59.719,0c0,89.084,0,177.164,0,265.747
		c-12.444,0-23.887,0-36.828,0c0-3.486-0.498-7.466-0.498-11.447c0-71.665,0-143.322,0-214.987c0-12.443-0.996-24.882-0.996-37.325
		c-12.443-0.498-24.882-0.996-37.325-1.494c-3.984,0-8.459,0-13.435,0c0-9.953,0-19.908,0-31.351c13.435,0,26.874-0.498,40.309,0
		c8.957,0.498,11.945-1.992,11.945-11.447c-0.996-33.342-0.498-66.187-0.996-99.529C836.627,1.095,849.065,1.095,861.51,1.095z"/>
	<path fill="#010202" d="M1244.701,262.857c-88.584,0-177.162,0-265.747,0c-5.97,39.313,20.407,87.089,57.229,106.993
		c30.853,16.423,62.705,16.921,95.551,6.47c33.341-10.451,55.242-33.842,72.16-64.194c10.951,5.471,20.407,10.946,30.355,15.922
		c-28.866,71.167-116.449,106.495-195.576,80.124c-73.154-24.384-115.951-110.477-94.058-190.604
		c22.392-82.606,99.03-127.896,185.624-108.982C1200.908,124.509,1248.68,192.191,1244.701,262.857z M1203.89,231.008
		c-8.46-59.717-61.71-92.562-114.462-91.565c-53.748,0.996-105.504,44.79-106.993,91.565
		C1055.594,231.008,1129.244,231.008,1203.89,231.008z"/>
	<path fill="#010202" d="M466.87,112.568c13.435,0,24.882,0,37.325,0c0,99.031,0,197.069,0,296.102c-11.945,0-23.388,0-36.827,0
		c0-15.922,0-31.85,0-47.771c-0.498-0.498-1.494-0.996-1.992-1.494c-40.807,47.273-91.068,65.688-151.784,53.245
		c-39.313-7.964-69.173-30.854-92.063-62.708c-44.79-62.207-33.342-152.777,23.388-206.525
		c50.761-48.27,163.229-62.208,221.953,21.896C466.87,146.907,466.87,130.484,466.87,112.568z M469.858,262.359
		c0-69.172-51.258-121.926-118.44-121.926c-66.187,0-119.438,53.75-119.438,120.933c0,67.18,53.749,122.422,119.438,122.422
		C418.6,382.792,469.858,331.036,469.858,262.359z"/>
	<path fill="#010202" d="M616.168,409.168c-13.435,0-24.882,0-36.829,0c0-99.029,0-197.07,0-296.102c11.947,0,23.39,0,36.829,0
		c0,12.937,0,25.878,0,38.816c0.498,0.495,1.494,0.996,1.992,1.491c27.869-36.329,59.718-61.709,109.98-39.312
		c-6.966,10.95-12.937,20.904-18.911,30.354c-36.331-7.963-62.708,5.969-78.132,39.811c-11.948,26.376-13.435,54.246-13.933,82.111
		c-0.996,43.294-0.498,86.591-0.498,129.888C616.168,400.211,616.168,404.19,616.168,409.168z"/>
</g>
</svg>
