<?xml version="1.0" encoding="utf-8"?>
<svg viewBox="-1 52.441 202 42" fill="none" xmlns="http://www.w3.org/2000/svg">
  <path d="M52.1026 92.2958C52.1026 92.2958 50.4281 88.5469 50.2395 87.951C50.1565 87.6945 50.164 87.6493 49.9906 87.6493C49.8095 87.6493 49.5229 87.687 49.1985 87.687C49.0401 87.687 48.6932 87.6116 48.5121 87.6116C48.399 87.6116 48.3311 87.6644 48.3311 87.7398C48.3311 87.8228 48.3763 87.8605 48.5498 87.8907C48.8591 87.9435 48.9722 88.1245 48.9722 88.4262C48.9722 88.7279 48.7309 91.8583 48.6328 92.4617C48.58 92.8087 48.5046 93.0048 48.1953 93.0652C47.9992 93.1029 47.9766 93.1482 47.9766 93.2085C47.9766 93.2915 48.0445 93.3292 48.1576 93.3292C48.3839 93.3292 48.5875 93.3066 48.7912 93.3066C48.9647 93.3066 49.2136 93.3292 49.3645 93.3292C49.4625 93.3292 49.5078 93.2839 49.5078 93.216C49.5078 93.1557 49.4701 93.1029 49.3796 93.0954C49.191 93.0727 49.0401 92.9294 49.025 92.7031C48.9798 92.0016 49.3117 88.9542 49.3117 88.9542C49.3117 88.9542 51.0918 92.8012 51.1974 93.0124C51.303 93.2236 51.3558 93.3443 51.7179 93.3443C52.0347 93.3443 52.1252 93.2387 52.2233 93.0124C52.3742 92.6654 54.0487 88.6978 54.0487 88.6978C54.0487 88.6978 54.3957 92.2732 54.3957 92.4391C54.3957 92.7408 54.2825 93.0048 53.9733 93.0652C53.7998 93.0954 53.7545 93.1331 53.7545 93.216C53.7545 93.2915 53.8224 93.3443 53.9356 93.3443C54.1166 93.3443 54.6823 93.2688 54.9237 93.2688C55.1651 93.2688 55.7384 93.3443 55.9194 93.3443C56.0325 93.3443 56.1004 93.2915 56.1004 93.216C56.1004 93.1331 56.0552 93.0954 55.8817 93.0652C55.5724 93.0124 55.4894 92.7408 55.4517 92.4391C55.4065 92.0997 55.1123 88.7279 55.1123 88.4262C55.1123 88.1245 55.1274 87.9435 55.4366 87.8907C55.6101 87.8605 55.6554 87.8228 55.6554 87.7398C55.6554 87.6644 55.5875 87.6116 55.4743 87.6116C55.2933 87.6116 54.9463 87.687 54.7879 87.687C54.4636 87.687 54.3278 87.6493 54.1468 87.6493C53.9733 87.6493 53.9356 87.8982 53.7923 88.2527C53.4 89.2409 52.1026 92.2958 52.1026 92.2958Z" style="fill: rgb(0, 0, 0);"/>
  <path d="M60.2843 87.5361C60.0882 87.5361 60.0354 87.6342 59.9524 87.8077C58.9568 89.8971 58.0365 91.9337 57.7272 92.5296C57.5688 92.8389 57.4557 93.0048 57.1464 93.0652C56.9503 93.1029 56.9277 93.1255 56.9277 93.2085C56.9277 93.3141 57.0031 93.3443 57.1163 93.3443C57.3425 93.3443 57.516 93.3066 58.1119 93.3066C58.3684 93.3066 58.6173 93.3292 58.7682 93.3292C58.8662 93.3292 58.9115 93.2839 58.9115 93.216C58.9115 93.1557 58.8738 93.1029 58.7833 93.0954C58.5947 93.0727 58.474 92.9747 58.474 92.7635C58.474 92.6201 58.5872 92.2204 58.7531 91.7301H61.1216C61.3554 92.326 61.5365 92.8163 61.5365 92.8992C61.5365 93.0275 61.3856 93.0803 61.2725 93.0954C61.182 93.1104 61.1442 93.1557 61.1442 93.216C61.1442 93.2839 61.1895 93.3292 61.2876 93.3292C61.4384 93.3292 61.6873 93.3066 61.9438 93.3066C62.5397 93.3066 63.0526 93.3443 63.2412 93.3443C63.3921 93.3443 63.4675 93.3141 63.4675 93.2085C63.4675 93.1255 63.4449 93.1029 63.2488 93.0652C62.9395 93.0048 62.8037 92.7408 62.6529 92.424C62.072 91.2322 60.752 88.1697 60.6011 87.8001C60.5333 87.6342 60.4654 87.5361 60.2843 87.5361ZM59.8091 89.0372C59.8318 88.9919 59.8619 88.9542 59.9072 88.9542C59.9524 88.9542 59.9675 88.9769 59.9977 89.0297C60.0656 89.1579 60.5559 90.3271 60.9708 91.3454H58.8889C59.1831 90.5232 59.5677 89.5652 59.8091 89.0372Z" style="fill: rgb(0, 0, 0);"/>
  <path d="M70.6259 90.6967C70.7994 90.6665 70.8447 90.6288 70.8447 90.5458C70.8447 90.4704 70.7768 90.4176 70.6636 90.4176C70.4826 90.4176 69.9169 90.493 69.6755 90.493C69.4341 90.493 68.8608 90.4176 68.6798 90.4176C68.5667 90.4176 68.4988 90.4704 68.4988 90.5458C68.4988 90.6288 68.544 90.6665 68.7175 90.6967C69.0268 90.7495 69.1475 91.021 69.1475 91.3227V92.2053C69.1475 92.507 69.0796 92.9143 68.0613 92.9143C67.1184 92.9143 65.8889 92.3335 65.8889 90.674C65.8889 88.5469 67.0279 87.9812 68.0387 87.9812C68.9061 87.9812 69.3134 88.3357 69.6453 88.9769C69.7057 89.0975 69.766 89.2409 69.8792 89.2409C69.947 89.2409 70.0225 89.2107 70.0225 89.1126C70.0225 88.9919 69.9244 88.3055 69.9244 87.9208C69.9244 87.7172 69.8565 87.6342 69.7509 87.6342C69.6453 87.6342 69.4945 87.7021 69.3059 87.7021C69.1173 87.7021 68.8156 87.5361 68.0839 87.5361C66.5678 87.5361 64.5613 88.3131 64.5613 90.6439C64.5613 92.8464 66.4018 93.4197 67.6615 93.4197C69.0343 93.4197 69.5322 92.8012 69.9772 92.8012C70.1507 92.8012 70.2638 92.7635 70.2638 92.6051C70.2638 92.4693 70.2035 92.424 70.2035 92.2053V91.3227C70.2035 91.021 70.3167 90.757 70.6259 90.6967Z" style="fill: rgb(0, 0, 0);"/>
  <path d="M71.9878 93.3443C72.1689 93.3443 72.6516 93.2688 72.893 93.2688C73.1344 93.2688 74.0094 93.3443 74.643 93.3443C76.8984 93.3443 77.8035 91.979 77.8035 90.2969C77.8035 88.3508 76.3025 87.6116 74.9975 87.6116C74.4771 87.6116 74.1602 87.6493 73.3984 87.6493C72.6365 87.6493 72.101 87.6116 71.9878 87.6116C71.8747 87.6116 71.7993 87.6417 71.7993 87.7473C71.7993 87.8303 71.8219 87.8529 72.018 87.8907C72.3273 87.951 72.448 88.215 72.448 88.5167V92.4391C72.448 92.7408 72.3273 93.0048 72.018 93.0652C71.8219 93.1029 71.7993 93.1255 71.7993 93.2085C71.7993 93.3141 71.8747 93.3443 71.9878 93.3443ZM76.6344 90.312C76.6344 91.8281 76.0611 92.9219 74.4771 92.9219H73.7906C73.5945 92.9219 73.504 92.8012 73.504 92.5975V88.3508C73.504 88.1245 73.6926 87.9736 74.3714 87.9736C75.7216 87.9736 76.6344 88.6072 76.6344 90.312Z" style="fill: rgb(0, 0, 0);"/>
  <path d="M81.7856 87.5361C81.5894 87.5361 81.5366 87.6342 81.4537 87.8077C80.458 89.8971 79.5377 91.9337 79.2285 92.5296C79.0701 92.8389 78.9569 93.0048 78.6476 93.0652C78.4515 93.1029 78.4289 93.1255 78.4289 93.2085C78.4289 93.3141 78.5043 93.3443 78.6175 93.3443C78.8438 93.3443 79.0173 93.3066 79.6132 93.3066C79.8696 93.3066 80.1185 93.3292 80.2694 93.3292C80.3675 93.3292 80.4127 93.2839 80.4127 93.216C80.4127 93.1557 80.375 93.1029 80.2845 93.0954C80.0959 93.0727 79.9752 92.9747 79.9752 92.7635C79.9752 92.6201 80.0884 92.2204 80.2543 91.7301H82.6228C82.8567 92.326 83.0377 92.8163 83.0377 92.8992C83.0377 93.0275 82.8868 93.0803 82.7737 93.0954C82.6832 93.1104 82.6455 93.1557 82.6455 93.216C82.6455 93.2839 82.6907 93.3292 82.7888 93.3292C82.9396 93.3292 83.1886 93.3066 83.445 93.3066C84.0409 93.3066 84.5538 93.3443 84.7424 93.3443C84.8933 93.3443 84.9687 93.3141 84.9687 93.2085C84.9687 93.1255 84.9461 93.1029 84.75 93.0652C84.4407 93.0048 84.3049 92.7408 84.1541 92.424C83.5733 91.2322 82.2532 88.1697 82.1024 87.8001C82.0345 87.6342 81.9666 87.5361 81.7856 87.5361ZM81.3103 89.0372C81.333 88.9919 81.3631 88.9542 81.4084 88.9542C81.4537 88.9542 81.4687 88.9769 81.4989 89.0297C81.5668 89.1579 82.0571 90.3271 82.472 91.3454H80.3901C80.6843 90.5232 81.069 89.5652 81.3103 89.0372Z" style="fill: rgb(0, 0, 0);"/>
  <path d="M96.5067 91.7753C96.5067 91.7753 93.6177 88.479 93.2858 87.951C93.1274 87.6945 93.0746 87.6493 92.9011 87.6493C92.7201 87.6493 92.5692 87.687 92.2449 87.687C92.0865 87.687 91.7395 87.6116 91.5584 87.6116C91.4453 87.6116 91.3774 87.6644 91.3774 87.7398C91.3774 87.8228 91.4227 87.8605 91.5962 87.8907C91.9054 87.9435 92.0186 88.1245 92.0186 88.4262C92.0186 88.7279 92.0487 91.6697 91.9959 92.326C91.9658 92.6729 91.8526 92.9822 91.4755 93.0652C91.2794 93.1104 91.2567 93.1482 91.2567 93.2085C91.2567 93.2915 91.3246 93.3292 91.4378 93.3292C91.6641 93.3292 92.0563 93.2613 92.2599 93.2613C92.4636 93.2613 92.8634 93.3292 93.0897 93.3292C93.2028 93.3292 93.2707 93.2915 93.2707 93.2085C93.2707 93.1482 93.2481 93.1104 93.052 93.0652C92.6748 92.9822 92.5617 92.6729 92.5315 92.326C92.4787 91.6697 92.4712 88.8788 92.4712 88.8788C92.4712 88.8788 96.0541 92.9445 96.2502 93.1632C96.3785 93.3066 96.469 93.4197 96.6651 93.4197C96.9366 93.4197 96.9366 93.1029 96.9366 92.9294C96.9366 92.5296 96.9291 89.271 96.9819 88.6148C97.0121 88.2678 97.1252 87.9585 97.5024 87.8756C97.6985 87.8303 97.7211 87.7926 97.7211 87.7323C97.7211 87.6493 97.6532 87.6116 97.5401 87.6116C97.3138 87.6116 96.9216 87.6795 96.7179 87.6795C96.5142 87.6795 96.1144 87.6116 95.8882 87.6116C95.775 87.6116 95.7071 87.6493 95.7071 87.7323C95.7071 87.7926 95.7298 87.8303 95.9259 87.8756C96.303 87.9585 96.4162 88.2678 96.4463 88.6148C96.4991 89.271 96.5067 91.7753 96.5067 91.7753Z" style="fill: rgb(0, 0, 0);"/>
  <path d="M101.717 87.5361C101.521 87.5361 101.469 87.6342 101.386 87.8077C100.39 89.8971 99.4696 91.9337 99.1604 92.5296C99.002 92.8389 98.8888 93.0048 98.5795 93.0652C98.3834 93.1029 98.3608 93.1255 98.3608 93.2085C98.3608 93.3141 98.4362 93.3443 98.5494 93.3443C98.7757 93.3443 98.9492 93.3066 99.5451 93.3066C99.8015 93.3066 100.05 93.3292 100.201 93.3292C100.299 93.3292 100.345 93.2839 100.345 93.216C100.345 93.1557 100.307 93.1029 100.216 93.0954C100.028 93.0727 99.9071 92.9747 99.9071 92.7635C99.9071 92.6201 100.02 92.2204 100.186 91.7301H102.555C102.789 92.326 102.97 92.8163 102.97 92.8992C102.97 93.0275 102.819 93.0803 102.706 93.0954C102.615 93.1104 102.577 93.1557 102.577 93.216C102.577 93.2839 102.623 93.3292 102.721 93.3292C102.872 93.3292 103.12 93.3066 103.377 93.3066C103.973 93.3066 104.486 93.3443 104.674 93.3443C104.825 93.3443 104.901 93.3141 104.901 93.2085C104.901 93.1255 104.878 93.1029 104.682 93.0652C104.373 93.0048 104.237 92.7408 104.086 92.424C103.505 91.2322 102.185 88.1697 102.034 87.8001C101.966 87.6342 101.898 87.5361 101.717 87.5361ZM101.242 89.0372C101.265 88.9919 101.295 88.9542 101.34 88.9542C101.386 88.9542 101.401 88.9769 101.431 89.0297C101.499 89.1579 101.989 90.3271 102.404 91.3454H100.322C100.616 90.5232 101.001 89.5652 101.242 89.0372Z" style="fill: rgb(0, 0, 0);"/>
  <path d="M107.767 91.0436C107.91 91.0436 108.068 91.0436 108.242 91.0361C108.612 91.202 108.876 91.8206 109.464 92.7257C109.826 93.2839 110.482 93.3518 110.98 93.3518C111.478 93.3518 111.666 93.2613 111.666 93.1482C111.666 93.0727 111.614 93.035 111.523 93.0199C110.822 92.9143 110.354 92.2128 109.924 91.5339C109.66 91.1266 109.404 90.9833 109.223 90.9305C109.336 90.9079 109.441 90.8777 109.554 90.8475C110.354 90.6061 110.95 90.048 110.95 89.173C110.95 88.1169 110.15 87.6116 109.087 87.6116C108.566 87.6116 107.827 87.687 107.065 87.687C106.824 87.687 106.251 87.6116 106.07 87.6116C105.956 87.6116 105.889 87.6644 105.889 87.7398C105.889 87.8228 105.934 87.8605 106.107 87.8907C106.417 87.9435 106.537 88.215 106.537 88.5167V92.4391C106.537 92.7408 106.417 93.0124 106.107 93.0652C105.934 93.0954 105.889 93.1331 105.889 93.216C105.889 93.2915 105.956 93.3443 106.07 93.3443C106.251 93.3443 106.824 93.2688 107.065 93.2688C107.307 93.2688 107.872 93.3443 108.053 93.3443C108.167 93.3443 108.234 93.2915 108.234 93.216C108.234 93.1331 108.189 93.0954 108.016 93.0652C107.706 93.0048 107.593 92.7408 107.593 92.4391V91.3001C107.593 91.1342 107.623 91.0436 107.767 91.0436ZM107.593 88.3508C107.593 88.1245 107.782 87.9736 108.461 87.9736C109.411 87.9736 109.834 88.4111 109.834 89.1353C109.834 89.9575 109.381 90.3648 108.868 90.5005C108.446 90.6062 108.295 90.6212 107.842 90.6212C107.646 90.6212 107.593 90.576 107.593 90.3723V88.3508Z" style="fill: rgb(0, 0, 0);"/>
  <path d="M115.784 90.659C116.093 90.659 116.266 90.6514 116.515 90.8174C116.764 90.9833 116.87 91.3303 116.99 91.3303C117.058 91.3303 117.111 91.2699 117.111 91.1719C117.111 91.0512 116.998 90.6967 116.998 90.3195C116.998 89.9424 117.081 89.7387 117.081 89.6557C117.081 89.5728 117.028 89.5275 116.96 89.5275C116.847 89.5275 116.772 89.8217 116.432 90.0178C115.98 90.2743 115.256 90.2215 114.803 90.2215C114.607 90.2215 114.554 90.1762 114.554 89.9725V88.3508C114.554 88.1245 114.743 87.9736 115.422 87.9736C116.742 87.9736 117.217 88.3885 117.549 89.0297C117.609 89.1503 117.647 89.2409 117.76 89.2409C117.828 89.2409 117.888 89.1881 117.888 89.09C117.888 88.9693 117.7 88.2904 117.7 87.9057C117.7 87.7021 117.617 87.5965 117.428 87.5965C117.224 87.5965 116.907 87.6493 114.448 87.6493C113.687 87.6493 113.151 87.6116 113.038 87.6116C112.925 87.6116 112.849 87.6417 112.849 87.7473C112.849 87.8303 112.872 87.8529 113.068 87.8907C113.377 87.951 113.498 88.215 113.498 88.5167V92.4391C113.498 92.7408 113.377 93.0048 113.068 93.0652C112.872 93.1029 112.849 93.1255 112.849 93.2085C112.849 93.3141 112.925 93.3443 113.038 93.3443C113.219 93.3443 113.702 93.2688 113.943 93.2688C116.402 93.2688 117.375 93.3594 117.579 93.3594C117.767 93.3594 117.85 93.2538 117.85 93.0501C117.85 92.6654 118.228 91.798 118.228 91.6773C118.228 91.5792 118.175 91.5189 118.107 91.5189C118.024 91.5189 117.971 91.5717 117.888 91.7074C117.526 92.3033 117.149 92.6654 116.628 92.7936C116.108 92.9219 115.014 92.9219 114.939 92.9219C114.743 92.9219 114.554 92.8012 114.554 92.5975V90.9003C114.554 90.674 114.743 90.659 115.784 90.659Z" style="fill: rgb(0, 0, 0);"/>
  <path d="M124.311 88.1999C124.236 87.9887 124.153 87.687 123.949 87.687C123.783 87.687 123.67 87.9887 123.587 88.1924L122.245 91.7678C122.222 91.813 122.192 91.8508 122.146 91.8508C122.101 91.8508 122.086 91.8281 122.056 91.7753C121.935 91.5566 120.894 88.3055 120.894 88.0566C120.894 87.9284 121.045 87.8756 121.158 87.8605C121.249 87.8454 121.287 87.8001 121.287 87.7398C121.287 87.6719 121.241 87.6266 121.143 87.6266C120.992 87.6266 120.743 87.6493 120.487 87.6493C119.891 87.6493 119.378 87.6116 119.19 87.6116C119.039 87.6116 118.963 87.6417 118.963 87.7473C118.963 87.8303 118.986 87.8529 119.182 87.8907C119.491 87.951 119.672 88.1999 119.778 88.5318C120.148 89.6859 121.075 92.7861 121.226 93.1557C121.294 93.3216 121.46 93.4197 121.641 93.4197C121.837 93.4197 122.018 93.3518 122.101 93.1482L123.542 89.4898L125.088 93.1557C125.156 93.3216 125.254 93.4197 125.526 93.4197C125.782 93.4197 125.865 93.3141 126.001 92.937C126.733 90.9456 127.427 89.0221 127.736 88.4262C127.894 88.1169 128.007 87.951 128.317 87.8907C128.513 87.8529 128.535 87.8303 128.535 87.7473C128.535 87.6417 128.46 87.6116 128.347 87.6116C128.121 87.6116 127.947 87.6493 127.351 87.6493C127.095 87.6493 126.846 87.6266 126.695 87.6266C126.597 87.6266 126.552 87.6719 126.552 87.7398C126.552 87.8001 126.589 87.8529 126.68 87.8605C126.868 87.8831 126.989 87.9812 126.989 88.1924C126.989 88.6072 126.31 90.8852 125.956 91.9186C125.941 91.9639 125.903 92.0016 125.858 92.0016C125.812 92.0016 125.797 91.979 125.767 91.9262L124.311 88.1999Z" style="fill: rgb(0, 0, 0);"/>
  <path d="M131.682 87.9812C132.55 87.9812 132.957 88.3357 133.289 88.9769C133.349 89.0975 133.41 89.2409 133.523 89.2409C133.591 89.2409 133.666 89.2107 133.666 89.1126C133.666 88.9919 133.568 88.3055 133.568 87.9208C133.568 87.7172 133.5 87.6342 133.395 87.6342C133.289 87.6342 133.138 87.7021 132.95 87.7021C132.761 87.7021 132.459 87.5361 131.728 87.5361C130.996 87.5361 129.714 87.8831 129.714 89.1428C129.714 90.7872 133.093 90.5835 133.093 92.0846C133.093 92.4693 132.731 92.9973 131.969 92.9973C131.102 92.9973 130.423 92.4919 130.121 91.6546C130.076 91.5264 130.045 91.3906 129.932 91.3906C129.864 91.3906 129.789 91.4208 129.789 91.5189C129.789 91.5867 129.819 91.8432 129.827 92.1374C129.827 92.3486 129.774 92.6352 129.774 92.7936C129.774 92.9973 129.827 93.0426 129.932 93.0426C130.038 93.0426 130.234 93.0426 130.415 93.0878C130.694 93.1557 131.192 93.4197 131.924 93.4197C133.017 93.4197 134.066 92.7107 134.066 91.5113C134.066 89.8066 130.785 89.8368 130.785 88.6299C130.785 88.215 131.154 87.9812 131.682 87.9812Z" style="fill: rgb(0, 0, 0);"/>
  <path d="M138.88 92.3939C139.092 92.6805 139.19 92.8389 139.19 92.937C139.19 93.035 139.114 93.0727 138.926 93.0954C138.835 93.1029 138.797 93.1557 138.797 93.216C138.797 93.2839 138.843 93.3292 138.941 93.3292C139.092 93.3292 139.936 93.3066 140.193 93.3066C140.789 93.3066 140.962 93.3443 141.189 93.3443C141.302 93.3443 141.377 93.3141 141.377 93.2085C141.377 93.1255 141.355 93.1029 141.158 93.0652C140.849 93.0048 140.615 92.8238 140.306 92.4617C140.17 92.3033 138.398 89.9499 138.398 89.8594C138.398 89.7689 139.484 88.7279 139.906 88.3659C140.329 88.0038 140.525 87.951 140.834 87.8907C141.03 87.8529 141.053 87.8303 141.053 87.7473C141.053 87.6417 140.977 87.6116 140.864 87.6116C140.638 87.6116 140.464 87.6493 139.869 87.6493C139.612 87.6493 139.212 87.6266 139.061 87.6266C138.963 87.6266 138.918 87.6719 138.918 87.7398C138.918 87.8001 138.956 87.8529 139.046 87.8605C139.235 87.8831 139.31 87.9208 139.31 88.0189C139.31 88.117 139.212 88.2754 139.001 88.562C138.797 88.8335 137.741 89.965 137.145 90.4176V88.5167C137.145 88.215 137.259 87.951 137.568 87.8907C137.741 87.8605 137.787 87.8228 137.787 87.7398C137.787 87.6644 137.719 87.6116 137.606 87.6116C137.425 87.6116 136.859 87.687 136.617 87.687C136.376 87.687 135.803 87.6116 135.622 87.6116C135.509 87.6116 135.441 87.6644 135.441 87.7398C135.441 87.8228 135.486 87.8605 135.66 87.8907C135.969 87.9435 136.089 88.215 136.089 88.5167V92.4391C136.089 92.7408 135.969 93.0124 135.66 93.0652C135.486 93.0954 135.441 93.1331 135.441 93.216C135.441 93.2915 135.509 93.3443 135.622 93.3443C135.803 93.3443 136.376 93.2688 136.617 93.2688C136.859 93.2688 137.425 93.3443 137.606 93.3443C137.719 93.3443 137.787 93.2915 137.787 93.216C137.787 93.1331 137.741 93.0954 137.568 93.0652C137.259 93.0048 137.145 92.7408 137.145 92.4391V90.9305C137.259 90.8174 137.447 90.6514 137.538 90.6514C137.673 90.6514 138.88 92.3939 138.88 92.3939Z" style="fill: rgb(0, 0, 0);"/>
  <path d="M145.795 87.5361C145.599 87.5361 145.546 87.6342 145.463 87.8077C144.468 89.8971 143.548 91.9337 143.238 92.5296C143.08 92.8389 142.967 93.0048 142.657 93.0652C142.461 93.1029 142.439 93.1255 142.439 93.2085C142.439 93.3141 142.514 93.3443 142.627 93.3443C142.854 93.3443 143.027 93.3066 143.623 93.3066C143.879 93.3066 144.128 93.3292 144.279 93.3292C144.377 93.3292 144.423 93.2839 144.423 93.216C144.423 93.1557 144.385 93.1029 144.294 93.0954C144.106 93.0727 143.985 92.9747 143.985 92.7635C143.985 92.6201 144.098 92.2204 144.264 91.7301H146.633C146.866 92.326 147.048 92.8163 147.048 92.8992C147.048 93.0275 146.897 93.0803 146.783 93.0954C146.693 93.1104 146.655 93.1557 146.655 93.216C146.655 93.2839 146.701 93.3292 146.799 93.3292C146.949 93.3292 147.198 93.3066 147.455 93.3066C148.051 93.3066 148.564 93.3443 148.752 93.3443C148.903 93.3443 148.979 93.3141 148.979 93.2085C148.979 93.1255 148.956 93.1029 148.76 93.0652C148.451 93.0048 148.315 92.7408 148.164 92.424C147.583 91.2322 146.263 88.1697 146.112 87.8001C146.044 87.6342 145.976 87.5361 145.795 87.5361ZM145.32 89.0372C145.343 88.9919 145.373 88.9542 145.418 88.9542C145.463 88.9542 145.479 88.9769 145.509 89.0297C145.577 89.1579 146.067 90.3271 146.482 91.3454H144.4C144.694 90.5232 145.079 89.5652 145.32 89.0372Z" style="fill: rgb(0, 0, 0);"/>
  <path d="M39.6795 90.4223C39.6795 91.0349 39.1828 91.5315 38.5702 91.5315C37.9576 91.5315 37.4609 91.0349 37.4609 90.4223C37.4609 89.8096 37.9576 89.313 38.5702 89.313C39.1828 89.313 39.6795 89.8096 39.6795 90.4223Z" style="fill: rgb(0, 0, 0);"/>
  <path d="M159.476 90.4223C159.476 91.0349 158.98 91.5315 158.367 91.5315C157.754 91.5315 157.258 91.0349 157.258 90.4223C157.258 89.8096 157.754 89.313 158.367 89.313C158.98 89.313 159.476 89.8096 159.476 90.4223Z" style="fill: rgb(0, 0, 0);"/>
  <path d="M1.56141 63.026C1.56141 60.8217 3.55144 59.1684 6.45995 59.1684C9.21538 59.1684 11.9708 60.393 12.7974 64.4343H13.0424V59.3827H12.9199L11.879 60.6992C10.6543 59.5358 8.87861 58.801 6.49057 58.801C3.12282 58.801 0.306159 60.4236 0.306159 63.6995C0.306159 71.1392 12.9505 69.5472 12.9505 76.4664C12.9505 79.0687 10.44 80.722 7.22535 80.722C4.46992 80.722 1.22464 79.3136 0.244927 74.3845H0V80.6607H0.122464L1.46956 78.9463C3.06159 80.4464 4.77608 81.0894 7.3172 81.0894C10.8686 81.0894 14.2058 79.4055 14.2058 75.7316C14.2058 67.8939 1.56141 69.5472 1.56141 63.026Z" style="fill: rgb(0, 0, 0);"/>
  <path d="M25.73 59.597C28.1793 59.597 29.3121 60.3012 30.1999 62.6892H30.4449L29.6795 59.2296H14.6777L13.9123 62.6892H14.1572C15.0451 60.3012 16.1779 59.597 18.6271 59.597H21.3826V78.2727C21.3826 79.6504 20.9539 80.3852 19.8212 80.5077V80.6607H24.536V80.5077C23.4032 80.3852 22.9746 79.6504 22.9746 78.2727V59.597H25.73Z" style="fill: rgb(0, 0, 0);"/>
  <path d="M45.8777 61.6177C45.8777 60.2399 46.3063 59.5052 47.4391 59.3827V59.2296H43.8876V59.3827C45.0204 59.5052 45.449 60.2399 45.449 61.6177V74.1702C45.449 78.1502 42.7242 80.5383 39.3565 80.5383C36.05 80.5383 33.5701 78.3033 33.5701 74.1702V61.6177C33.5701 60.2399 33.9681 59.5052 35.1009 59.3827V59.2296H30.4473V59.3827C31.58 59.5052 31.9781 60.2399 31.9781 61.6177V74.0171C31.9781 79.0687 35.0396 81.0894 39.0503 81.0894C43.061 81.0894 45.8777 78.6095 45.8777 74.0171V61.6177Z" style="fill: rgb(0, 0, 0);"/>
  <path d="M49.6056 78.2727C49.6056 79.6504 49.177 80.3852 48.0442 80.5077V80.6607H55.4839C61.9132 80.6607 66.3525 76.3745 66.3525 69.9452C66.3525 63.5158 61.9132 59.2296 55.4839 59.2296H48.0442V59.3827C49.177 59.5052 49.6056 60.2399 49.6056 61.6177V78.2727ZM51.1977 59.597H55.0246C60.5355 59.597 64.5768 63.6689 64.5768 69.9452C64.5768 76.2214 60.5355 80.2934 55.0246 80.2934H51.1977V59.597Z" style="fill: rgb(0, 0, 0);"/>
  <path d="M68.3686 78.3033C68.3686 79.681 67.94 80.2627 66.8072 80.5383V80.6607H71.4608V80.5383C70.328 80.2627 69.8994 79.681 69.8994 78.3033V61.587C69.8994 60.2093 70.328 59.6276 71.4608 59.3521V59.2296H66.8072V59.3521C67.94 59.6276 68.3686 60.2093 68.3686 61.587V78.3033Z" style="fill: rgb(0, 0, 0);"/>
  <path d="M71.933 69.9452C71.933 76.8338 76.6784 81.0894 83.1078 81.0894C89.5371 81.0894 94.2826 76.8338 94.2826 69.9452C94.2826 63.0566 89.5371 58.801 83.1078 58.801C76.6784 58.801 71.933 63.0566 71.933 69.9452ZM73.7087 69.9452C73.7087 63.2097 77.9031 59.1684 83.1078 59.1684C88.3125 59.1684 92.5069 63.2097 92.5069 69.9452C92.5069 76.6807 88.3125 80.722 83.1078 80.722C77.9031 80.722 73.7087 76.6807 73.7087 69.9452Z" style="fill: rgb(0, 0, 0);"/>
  <path d="M107.518 81.0894H107.977L114.437 61.8014L120.683 81.0894H121.05L127.694 61.6177C128.183 60.1481 128.735 59.5664 129.867 59.3827V59.2296H126.163V59.3827C127.296 59.5052 127.663 60.3318 127.234 61.6177L121.509 78.6707L115.294 59.2296H114.835L108.375 78.8544L102.864 61.6177C102.435 60.3012 102.803 59.5052 103.936 59.3827V59.2296H99.0065V59.3827C100.139 59.5664 100.69 60.1175 101.18 61.6177L107.518 81.0894Z" style="fill: rgb(0, 0, 0);"/>
  <path d="M131.132 78.3033C131.132 79.681 130.704 80.2627 129.571 80.5383V80.6607H134.225V80.5383C133.092 80.2627 132.663 79.681 132.663 78.3033V61.587C132.663 60.2093 133.092 59.6276 134.225 59.3521V59.2296H129.571V59.3521C130.704 59.6276 131.132 60.2093 131.132 61.587V78.3033Z" style="fill: rgb(0, 0, 0);"/>
  <path d="M136.228 59.2296L135.462 62.6892H135.707C136.595 60.3012 137.728 59.597 140.177 59.597H147.708L134.544 80.6607H148.841L149.76 76.5276H149.515C148.229 79.6198 147.249 80.2934 143.575 80.2934H136.595L149.76 59.2296H136.228Z" style="fill: rgb(0, 0, 0);"/>
  <path d="M153.484 73.8334C154.28 72.9149 155.229 72.7618 155.964 72.7618C157.342 72.7618 158.229 73.8028 160.005 73.8028C160.985 73.8028 161.934 73.3129 162.577 72.3945L164.842 78.2727C165.271 79.4055 165.24 80.324 163.985 80.5077V80.6607H168.639V80.5077C167.537 80.2627 166.924 79.4667 166.465 78.2727L159.148 59.2296H157.525L158.076 60.6686L151.31 78.2727C150.851 79.4667 150.239 80.2627 149.136 80.5077V80.6607H152.627V80.5077C151.371 80.324 151.341 79.4055 151.769 78.2727L153.484 73.8334ZM160.128 73.1292C158.75 73.1292 157.862 72.0883 156.086 72.0883C155.229 72.0883 154.341 72.4863 153.698 73.2211L158.291 61.2503L162.516 72.1801C161.75 72.9762 160.832 73.1292 160.128 73.1292Z" style="fill: rgb(0, 0, 0);"/>
  <path d="M174.585 54.178C174.585 54.7903 175.044 55.2496 175.657 55.2496C176.269 55.2496 176.728 54.7903 176.728 54.178C176.728 53.5657 176.269 53.1064 175.657 53.1064C175.044 53.1064 174.585 53.5657 174.585 54.178ZM169.717 59.2296L168.952 62.6892H169.197C170.085 60.3012 171.217 59.597 173.667 59.597H181.198L168.033 80.6607H182.331L183.249 76.5276H183.005C181.719 79.6198 180.739 80.2934 177.065 80.2934H170.085L183.249 59.2296H169.717Z" style="fill: rgb(0, 0, 0);"/>
  <path d="M198.975 61.6177C198.975 60.2399 199.404 59.5052 200.536 59.3827V59.2296H196.985V59.3827C198.118 59.5052 198.546 60.2399 198.546 61.6177V74.1702C198.546 78.1502 195.822 80.5383 192.454 80.5383C189.147 80.5383 186.667 78.3033 186.667 74.1702V61.6177C186.667 60.2399 187.065 59.5052 188.198 59.3827V59.2296H183.545V59.3827C184.677 59.5052 185.075 60.2399 185.075 61.6177V74.0171C185.075 79.0687 188.137 81.0894 192.148 81.0894C196.158 81.0894 198.975 78.6095 198.975 74.0171V61.6177Z" style="fill: rgb(0, 0, 0);"/>
</svg>